<mxfile host="app.diagrams.net" agent="Mozilla/5.0 (Macintosh; Intel Mac OS X 10_15_7) AppleWebKit/537.36 (KHTML, like Gecko) Chrome/139.0.0.0 Safari/537.36" version="28.1.1" pages="2">
  <diagram name="第 1 页" id="-7rUZBeNB6Kr9PdHBvQQ">
    <mxGraphModel dx="984" dy="548" grid="1" gridSize="10" guides="1" tooltips="1" connect="1" arrows="1" fold="1" page="1" pageScale="1" pageWidth="827" pageHeight="1169" math="0" shadow="0">
      <root>
        <mxCell id="0" />
        <mxCell id="1" parent="0" />
        <mxCell id="crrEgtXzfFiQpc_Nn77q-1" value="Pool" style="swimlane;html=1;childLayout=stackLayout;resizeParent=1;resizeParentMax=0;horizontal=0;startSize=20;horizontalStack=0;whiteSpace=wrap;" vertex="1" parent="1">
          <mxGeometry x="30" y="490" width="700" height="240" as="geometry" />
        </mxCell>
        <mxCell id="crrEgtXzfFiQpc_Nn77q-3" value="1st line" style="swimlane;html=1;startSize=20;horizontal=0;" vertex="1" parent="crrEgtXzfFiQpc_Nn77q-1">
          <mxGeometry x="20" width="680" height="120" as="geometry" />
        </mxCell>
        <mxCell id="crrEgtXzfFiQpc_Nn77q-4" value="2nd Line" style="swimlane;html=1;startSize=20;horizontal=0;" vertex="1" parent="crrEgtXzfFiQpc_Nn77q-1">
          <mxGeometry x="20" y="120" width="680" height="120" as="geometry" />
        </mxCell>
        <mxCell id="crrEgtXzfFiQpc_Nn77q-7" value="VIP Customer" style="swimlane;html=1;startSize=20;fontStyle=0;collapsible=0;horizontal=0;swimlaneLine=1;swimlaneFillColor=#ffffff;strokeWidth=2;whiteSpace=wrap;" vertex="1" parent="1">
          <mxGeometry x="30" y="360" width="700" height="100" as="geometry" />
        </mxCell>
        <mxCell id="crrEgtXzfFiQpc_Nn77q-8" value="" style="points=[[0.145,0.145,0],[0.5,0,0],[0.855,0.145,0],[1,0.5,0],[0.855,0.855,0],[0.5,1,0],[0.145,0.855,0],[0,0.5,0]];shape=mxgraph.bpmn.event;html=1;verticalLabelPosition=bottom;labelBackgroundColor=#ffffff;verticalAlign=top;align=center;perimeter=ellipsePerimeter;outlineConnect=0;aspect=fixed;outline=standard;symbol=general;" vertex="1" parent="crrEgtXzfFiQpc_Nn77q-7">
          <mxGeometry x="50" y="20" width="50" height="50" as="geometry" />
        </mxCell>
      </root>
    </mxGraphModel>
  </diagram>
  <diagram id="A7_EB6fxQZ6pTfNvgGW4" name="第 2 页">
    <mxGraphModel dx="984" dy="548" grid="1" gridSize="10" guides="1" tooltips="1" connect="1" arrows="1" fold="1" page="1" pageScale="1" pageWidth="827" pageHeight="1169" math="0" shadow="0">
      <root>
        <mxCell id="0" />
        <mxCell id="1" parent="0" />
        <mxCell id="K5xxSd8D8HPHLGX_2HTV-1" value="" style="points=[[0.145,0.145,0],[0.5,0,0],[0.855,0.145,0],[1,0.5,0],[0.855,0.855,0],[0.5,1,0],[0.145,0.855,0],[0,0.5,0]];shape=mxgraph.bpmn.event;html=1;verticalLabelPosition=bottom;labelBackgroundColor=#ffffff;verticalAlign=top;align=center;perimeter=ellipsePerimeter;outlineConnect=0;aspect=fixed;outline=standard;symbol=general;" vertex="1" parent="1">
          <mxGeometry x="80" y="480" width="50" height="50" as="geometry" />
        </mxCell>
        <mxCell id="K5xxSd8D8HPHLGX_2HTV-2" value="登记VIP客户的问题" style="points=[[0.25,0,0],[0.5,0,0],[0.75,0,0],[1,0.25,0],[1,0.5,0],[1,0.75,0],[0.75,1,0],[0.5,1,0],[0.25,1,0],[0,0.75,0],[0,0.5,0],[0,0.25,0]];shape=mxgraph.bpmn.task2;whiteSpace=wrap;rectStyle=rounded;size=10;html=1;container=1;expand=0;collapsible=0;taskMarker=abstract;" vertex="1" parent="1">
          <mxGeometry x="210" y="465" width="120" height="80" as="geometry" />
        </mxCell>
        <mxCell id="K5xxSd8D8HPHLGX_2HTV-3" value="" style="points=[[0.145,0.145,0],[0.5,0,0],[0.855,0.145,0],[1,0.5,0],[0.855,0.855,0],[0.5,1,0],[0.145,0.855,0],[0,0.5,0]];shape=mxgraph.bpmn.event;html=1;verticalLabelPosition=bottom;labelBackgroundColor=#ffffff;verticalAlign=top;align=center;perimeter=ellipsePerimeter;outlineConnect=0;aspect=fixed;outline=end;symbol=terminate2;" vertex="1" parent="1">
          <mxGeometry x="690" y="480" width="50" height="50" as="geometry" />
        </mxCell>
        <mxCell id="K5xxSd8D8HPHLGX_2HTV-4" style="edgeStyle=orthogonalEdgeStyle;rounded=0;orthogonalLoop=1;jettySize=auto;html=1;exitX=1;exitY=0.5;exitDx=0;exitDy=0;exitPerimeter=0;entryX=0;entryY=0.5;entryDx=0;entryDy=0;entryPerimeter=0;" edge="1" parent="1" source="K5xxSd8D8HPHLGX_2HTV-1" target="K5xxSd8D8HPHLGX_2HTV-2">
          <mxGeometry relative="1" as="geometry" />
        </mxCell>
        <mxCell id="K5xxSd8D8HPHLGX_2HTV-6" value="接到VIP客户的电话" style="text;html=1;align=center;verticalAlign=middle;whiteSpace=wrap;rounded=0;" vertex="1" parent="1">
          <mxGeometry x="70" y="540" width="60" height="30" as="geometry" />
        </mxCell>
        <mxCell id="K5xxSd8D8HPHLGX_2HTV-10" style="edgeStyle=orthogonalEdgeStyle;rounded=0;orthogonalLoop=1;jettySize=auto;html=1;exitX=1;exitY=0.5;exitDx=0;exitDy=0;exitPerimeter=0;" edge="1" parent="1" source="K5xxSd8D8HPHLGX_2HTV-7" target="K5xxSd8D8HPHLGX_2HTV-9">
          <mxGeometry relative="1" as="geometry" />
        </mxCell>
        <mxCell id="K5xxSd8D8HPHLGX_2HTV-14" style="edgeStyle=orthogonalEdgeStyle;rounded=0;orthogonalLoop=1;jettySize=auto;html=1;exitX=0.5;exitY=0;exitDx=0;exitDy=0;exitPerimeter=0;entryX=0.5;entryY=1;entryDx=0;entryDy=0;dashed=1;" edge="1" parent="1" source="K5xxSd8D8HPHLGX_2HTV-7" target="K5xxSd8D8HPHLGX_2HTV-13">
          <mxGeometry relative="1" as="geometry" />
        </mxCell>
        <mxCell id="K5xxSd8D8HPHLGX_2HTV-7" value="处理VIP客户的问题" style="points=[[0.25,0,0],[0.5,0,0],[0.75,0,0],[1,0.25,0],[1,0.5,0],[1,0.75,0],[0.75,1,0],[0.5,1,0],[0.25,1,0],[0,0.75,0],[0,0.5,0],[0,0.25,0]];shape=mxgraph.bpmn.task2;whiteSpace=wrap;rectStyle=rounded;size=10;html=1;container=1;expand=0;collapsible=0;taskMarker=abstract;" vertex="1" parent="1">
          <mxGeometry x="370" y="465" width="120" height="80" as="geometry" />
        </mxCell>
        <mxCell id="K5xxSd8D8HPHLGX_2HTV-16" value="" style="points=[[0.145,0.145,0],[0.5,0,0],[0.855,0.145,0],[1,0.5,0],[0.855,0.855,0],[0.5,1,0],[0.145,0.855,0],[0,0.5,0]];shape=mxgraph.bpmn.event;html=1;verticalLabelPosition=bottom;labelBackgroundColor=#ffffff;verticalAlign=top;align=center;perimeter=ellipsePerimeter;outlineConnect=0;aspect=fixed;outline=throwing;symbol=escalation;" vertex="1" parent="K5xxSd8D8HPHLGX_2HTV-7">
          <mxGeometry x="50" y="45" width="50" height="50" as="geometry" />
        </mxCell>
        <mxCell id="K5xxSd8D8HPHLGX_2HTV-8" style="edgeStyle=orthogonalEdgeStyle;rounded=0;orthogonalLoop=1;jettySize=auto;html=1;exitX=1;exitY=0.5;exitDx=0;exitDy=0;exitPerimeter=0;entryX=0;entryY=0.5;entryDx=0;entryDy=0;entryPerimeter=0;" edge="1" parent="1" source="K5xxSd8D8HPHLGX_2HTV-2" target="K5xxSd8D8HPHLGX_2HTV-7">
          <mxGeometry relative="1" as="geometry" />
        </mxCell>
        <mxCell id="K5xxSd8D8HPHLGX_2HTV-11" value="Yes" style="edgeStyle=orthogonalEdgeStyle;rounded=0;orthogonalLoop=1;jettySize=auto;html=1;exitX=1;exitY=0.5;exitDx=0;exitDy=0;exitPerimeter=0;" edge="1" parent="1" source="K5xxSd8D8HPHLGX_2HTV-9" target="K5xxSd8D8HPHLGX_2HTV-3">
          <mxGeometry x="-0.1111" relative="1" as="geometry">
            <mxPoint as="offset" />
          </mxGeometry>
        </mxCell>
        <mxCell id="K5xxSd8D8HPHLGX_2HTV-9" value="" style="points=[[0.25,0.25,0],[0.5,0,0],[0.75,0.25,0],[1,0.5,0],[0.75,0.75,0],[0.5,1,0],[0.25,0.75,0],[0,0.5,0]];shape=mxgraph.bpmn.gateway2;html=1;verticalLabelPosition=bottom;labelBackgroundColor=#ffffff;verticalAlign=top;align=center;perimeter=rhombusPerimeter;outlineConnect=0;outline=none;symbol=none;gwType=exclusive;" vertex="1" parent="1">
          <mxGeometry x="550" y="480" width="50" height="50" as="geometry" />
        </mxCell>
        <mxCell id="K5xxSd8D8HPHLGX_2HTV-12" value="VIP客户的问题等到解决" style="text;html=1;align=center;verticalAlign=middle;whiteSpace=wrap;rounded=0;" vertex="1" parent="1">
          <mxGeometry x="540" y="435" width="60" height="30" as="geometry" />
        </mxCell>
        <mxCell id="K5xxSd8D8HPHLGX_2HTV-13" value="" style="shape=datastore;html=1;labelPosition=center;verticalLabelPosition=bottom;align=center;verticalAlign=top;" vertex="1" parent="1">
          <mxGeometry x="380" y="335" width="100" height="100" as="geometry" />
        </mxCell>
        <mxCell id="K5xxSd8D8HPHLGX_2HTV-15" value="客户问题知识库" style="text;html=1;align=center;verticalAlign=middle;whiteSpace=wrap;rounded=0;" vertex="1" parent="1">
          <mxGeometry x="310" y="370" width="60" height="30" as="geometry" />
        </mxCell>
        <mxCell id="K5xxSd8D8HPHLGX_2HTV-17" value="处理客户问题升级" style="points=[[0.25,0,0],[0.5,0,0],[0.75,0,0],[1,0.25,0],[1,0.5,0],[1,0.75,0],[0.75,1,0],[0.5,1,0],[0.25,1,0],[0,0.75,0],[0,0.5,0],[0,0.25,0]];shape=mxgraph.bpmn.task2;whiteSpace=wrap;rectStyle=rounded;size=10;html=1;container=1;expand=0;collapsible=0;taskMarker=abstract;bpmnShapeType=subprocess;isLoopSub=1;outline=eventInt;symbol=escalation;" vertex="1" parent="1">
          <mxGeometry x="530" y="560" width="120" height="80" as="geometry" />
        </mxCell>
        <mxCell id="K5xxSd8D8HPHLGX_2HTV-18" style="edgeStyle=orthogonalEdgeStyle;rounded=1;orthogonalLoop=1;jettySize=auto;html=1;entryX=0.5;entryY=1;entryDx=0;entryDy=0;entryPerimeter=0;curved=0;dashed=1;" edge="1" parent="1" source="K5xxSd8D8HPHLGX_2HTV-17" target="K5xxSd8D8HPHLGX_2HTV-16">
          <mxGeometry relative="1" as="geometry" />
        </mxCell>
      </root>
    </mxGraphModel>
  </diagram>
</mxfile>
